<?xml version="1.0" encoding="UTF-8"?>
<svg xmlns="http://www.w3.org/2000/svg" xmlns:xlink="http://www.w3.org/1999/xlink" font-size="10px" font-family="sans-serif" width="519" height="519" viewBox="-4.5 -4.5 519 519"><g shape-rendering="crispEdges"><path fill="white" stroke="none" d="M -0.5 -0.5 L 510.5 -0.5 510.5 510.5 -0.5 510.5 z"/></g><g shape-rendering="crispEdges"><path fill="black" stroke="none" d="M 29.5 59.5 L 60.5 59.5 60.5 90.5 29.5 90.5 z"/><path fill="black" stroke="none" d="M 59.5 59.5 L 90.5 59.5 90.5 90.5 59.5 90.5 z"/><path fill="black" stroke="none" d="M 89.5 59.5 L 120.5 59.5 120.5 90.5 89.5 90.5 z"/><path fill="black" stroke="none" d="M 149.5 59.5 L 180.5 59.5 180.5 90.5 149.5 90.5 z"/><path fill="black" stroke="none" d="M 209.5 59.5 L 240.5 59.5 240.5 90.5 209.5 90.5 z"/><path fill="black" stroke="none" d="M 269.5 59.5 L 300.5 59.5 300.5 90.5 269.5 90.5 z"/><path fill="black" stroke="none" d="M 299.5 59.5 L 330.5 59.5 330.5 90.5 299.5 90.5 z"/><path fill="black" stroke="none" d="M 329.5 59.5 L 360.5 59.5 360.5 90.5 329.5 90.5 z"/><path fill="black" stroke="none" d="M 389.5 59.5 L 420.5 59.5 420.5 90.5 389.5 90.5 z"/><path fill="black" stroke="none" d="M 419.5 59.5 L 450.5 59.5 450.5 90.5 419.5 90.5 z"/><path fill="black" stroke="none" d="M 449.5 59.5 L 480.5 59.5 480.5 90.5 449.5 90.5 z"/><path fill="black" stroke="none" d="M 29.5 89.5 L 60.5 89.5 60.5 120.5 29.5 120.5 z"/><path fill="black" stroke="none" d="M 89.5 89.5 L 120.5 89.5 120.5 120.5 89.5 120.5 z"/><path fill="black" stroke="none" d="M 149.5 89.5 L 180.5 89.5 180.5 120.5 149.5 120.5 z"/><path fill="black" stroke="none" d="M 209.5 89.5 L 240.5 89.5 240.5 120.5 209.5 120.5 z"/><path fill="black" stroke="none" d="M 329.5 89.5 L 360.5 89.5 360.5 120.5 329.5 120.5 z"/><path fill="black" stroke="none" d="M 449.5 89.5 L 480.5 89.5 480.5 120.5 449.5 120.5 z"/><path fill="black" stroke="none" d="M 29.5 119.5 L 60.5 119.5 60.5 150.5 29.5 150.5 z"/><path fill="black" stroke="none" d="M 59.5 119.5 L 90.5 119.5 90.5 150.5 59.5 150.5 z"/><path fill="black" stroke="none" d="M 89.5 119.5 L 120.5 119.5 120.5 150.5 89.5 150.5 z"/><path fill="black" stroke="none" d="M 149.5 119.5 L 180.5 119.5 180.5 150.5 149.5 150.5 z"/><path fill="black" stroke="none" d="M 209.5 119.5 L 240.5 119.5 240.5 150.5 209.5 150.5 z"/><path fill="black" stroke="none" d="M 299.5 119.5 L 330.5 119.5 330.5 150.5 299.5 150.5 z"/><path fill="black" stroke="none" d="M 419.5 119.5 L 450.5 119.5 450.5 150.5 419.5 150.5 z"/><path fill="black" stroke="none" d="M 29.5 149.5 L 60.5 149.5 60.5 180.5 29.5 180.5 z"/><path fill="black" stroke="none" d="M 149.5 149.5 L 180.5 149.5 180.5 180.5 149.5 180.5 z"/><path fill="black" stroke="none" d="M 209.5 149.5 L 240.5 149.5 240.5 180.5 209.5 180.5 z"/><path fill="black" stroke="none" d="M 269.5 149.5 L 300.5 149.5 300.5 180.5 269.5 180.5 z"/><path fill="black" stroke="none" d="M 389.5 149.5 L 420.5 149.5 420.5 180.5 389.5 180.5 z"/><path fill="black" stroke="none" d="M 29.5 179.5 L 60.5 179.5 60.5 210.5 29.5 210.5 z"/><path fill="black" stroke="none" d="M 149.5 179.5 L 180.5 179.5 180.5 210.5 149.5 210.5 z"/><path fill="black" stroke="none" d="M 179.5 179.5 L 210.5 179.5 210.5 210.5 179.5 210.5 z"/><path fill="black" stroke="none" d="M 209.5 179.5 L 240.5 179.5 240.5 210.5 209.5 210.5 z"/><path fill="black" stroke="none" d="M 269.5 179.5 L 300.5 179.5 300.5 210.5 269.5 210.5 z"/><path fill="black" stroke="none" d="M 299.5 179.5 L 330.5 179.5 330.5 210.5 299.5 210.5 z"/><path fill="black" stroke="none" d="M 329.5 179.5 L 360.5 179.5 360.5 210.5 329.5 210.5 z"/><path fill="black" stroke="none" d="M 389.5 179.5 L 420.5 179.5 420.5 210.5 389.5 210.5 z"/><path fill="black" stroke="none" d="M 419.5 179.5 L 450.5 179.5 450.5 210.5 419.5 210.5 z"/><path fill="black" stroke="none" d="M 449.5 179.5 L 480.5 179.5 480.5 210.5 449.5 210.5 z"/><path fill="black" stroke="none" d="M 29.5 299.5 L 60.5 299.5 60.5 330.5 29.5 330.5 z"/><path fill="black" stroke="none" d="M 149.5 299.5 L 180.5 299.5 180.5 330.5 149.5 330.5 z"/><path fill="black" stroke="none" d="M 209.5 299.5 L 240.5 299.5 240.5 330.5 209.5 330.5 z"/><path fill="black" stroke="none" d="M 299.5 299.5 L 330.5 299.5 330.5 330.5 299.5 330.5 z"/><path fill="black" stroke="none" d="M 359.5 299.5 L 390.5 299.5 390.5 330.5 359.5 330.5 z"/><path fill="black" stroke="none" d="M 449.5 299.5 L 480.5 299.5 480.5 330.5 449.5 330.5 z"/><path fill="black" stroke="none" d="M 29.5 329.5 L 60.5 329.5 60.5 360.5 29.5 360.5 z"/><path fill="black" stroke="none" d="M 149.5 329.5 L 180.5 329.5 180.5 360.5 149.5 360.5 z"/><path fill="black" stroke="none" d="M 209.5 329.5 L 240.5 329.5 240.5 360.5 209.5 360.5 z"/><path fill="black" stroke="none" d="M 239.5 329.5 L 270.5 329.5 270.5 360.5 239.5 360.5 z"/><path fill="black" stroke="none" d="M 299.5 329.5 L 330.5 329.5 330.5 360.5 299.5 360.5 z"/><path fill="black" stroke="none" d="M 359.5 329.5 L 390.5 329.5 390.5 360.5 359.5 360.5 z"/><path fill="black" stroke="none" d="M 419.5 329.5 L 450.5 329.5 450.5 360.5 419.5 360.5 z"/><path fill="black" stroke="none" d="M 29.5 359.5 L 60.5 359.5 60.5 390.5 29.5 390.5 z"/><path fill="black" stroke="none" d="M 149.5 359.5 L 180.5 359.5 180.5 390.5 149.5 390.5 z"/><path fill="black" stroke="none" d="M 209.5 359.5 L 240.5 359.5 240.5 390.5 209.5 390.5 z"/><path fill="black" stroke="none" d="M 269.5 359.5 L 300.5 359.5 300.5 390.5 269.5 390.5 z"/><path fill="black" stroke="none" d="M 299.5 359.5 L 330.5 359.5 330.5 390.5 299.5 390.5 z"/><path fill="black" stroke="none" d="M 359.5 359.5 L 390.5 359.5 390.5 390.5 359.5 390.5 z"/><path fill="black" stroke="none" d="M 389.5 359.5 L 420.5 359.5 420.5 390.5 389.5 390.5 z"/><path fill="black" stroke="none" d="M 29.5 389.5 L 60.5 389.5 60.5 420.5 29.5 420.5 z"/><path fill="black" stroke="none" d="M 149.5 389.5 L 180.5 389.5 180.5 420.5 149.5 420.5 z"/><path fill="black" stroke="none" d="M 209.5 389.5 L 240.5 389.5 240.5 420.5 209.5 420.5 z"/><path fill="black" stroke="none" d="M 299.5 389.5 L 330.5 389.5 330.5 420.5 299.5 420.5 z"/><path fill="black" stroke="none" d="M 359.5 389.5 L 390.5 389.5 390.5 420.5 359.5 420.5 z"/><path fill="black" stroke="none" d="M 419.5 389.5 L 450.5 389.5 450.5 420.5 419.5 420.5 z"/><path fill="black" stroke="none" d="M 29.5 419.5 L 60.5 419.5 60.5 450.5 29.5 450.5 z"/><path fill="black" stroke="none" d="M 59.5 419.5 L 90.5 419.5 90.5 450.5 59.5 450.5 z"/><path fill="black" stroke="none" d="M 89.5 419.5 L 120.5 419.5 120.5 450.5 89.5 450.5 z"/><path fill="black" stroke="none" d="M 149.5 419.5 L 180.5 419.5 180.5 450.5 149.5 450.5 z"/><path fill="black" stroke="none" d="M 209.5 419.5 L 240.5 419.5 240.5 450.5 209.5 450.5 z"/><path fill="black" stroke="none" d="M 299.5 419.5 L 330.5 419.5 330.5 450.5 299.5 450.5 z"/><path fill="black" stroke="none" d="M 359.5 419.5 L 390.5 419.5 390.5 450.5 359.5 450.5 z"/><path fill="black" stroke="none" d="M 449.5 419.5 L 480.5 419.5 480.5 450.5 449.5 450.5 z"/></g><g shape-rendering="crispEdges"><path fill="none" stroke="rgb(127, 127, 127)" d="M 30 0 L 30 510" stroke-width="1" stroke-dasharray="3"/><path fill="none" stroke="rgb(127, 127, 127)" d="M 60 0 L 60 510" stroke-width="1" stroke-dasharray="3"/><path fill="none" stroke="rgb(127, 127, 127)" d="M 90 0 L 90 510" stroke-width="1" stroke-dasharray="3"/><path fill="none" stroke="rgb(127, 127, 127)" d="M 120 0 L 120 510" stroke-width="1" stroke-dasharray="3"/><path fill="none" stroke="rgb(127, 127, 127)" d="M 150 0 L 150 510" stroke-width="1" stroke-dasharray="3"/><path fill="none" stroke="rgb(127, 127, 127)" d="M 180 0 L 180 510" stroke-width="1" stroke-dasharray="3"/><path fill="none" stroke="rgb(127, 127, 127)" d="M 210 0 L 210 510" stroke-width="1" stroke-dasharray="3"/><path fill="none" stroke="rgb(127, 127, 127)" d="M 240 0 L 240 510" stroke-width="1" stroke-dasharray="3"/><path fill="none" stroke="rgb(127, 127, 127)" d="M 270 0 L 270 510" stroke-width="1" stroke-dasharray="3"/><path fill="none" stroke="rgb(127, 127, 127)" d="M 300 0 L 300 510" stroke-width="1" stroke-dasharray="3"/><path fill="none" stroke="rgb(127, 127, 127)" d="M 330 0 L 330 510" stroke-width="1" stroke-dasharray="3"/><path fill="none" stroke="rgb(127, 127, 127)" d="M 360 0 L 360 510" stroke-width="1" stroke-dasharray="3"/><path fill="none" stroke="rgb(127, 127, 127)" d="M 390 0 L 390 510" stroke-width="1" stroke-dasharray="3"/><path fill="none" stroke="rgb(127, 127, 127)" d="M 420 0 L 420 510" stroke-width="1" stroke-dasharray="3"/><path fill="none" stroke="rgb(127, 127, 127)" d="M 450 0 L 450 510" stroke-width="1" stroke-dasharray="3"/><path fill="none" stroke="rgb(127, 127, 127)" d="M 480 0 L 480 510" stroke-width="1" stroke-dasharray="3"/><path fill="none" stroke="rgb(127, 127, 127)" d="M 0 30 L 510 30" stroke-width="1" stroke-dasharray="3"/><path fill="none" stroke="rgb(127, 127, 127)" d="M 0 60 L 510 60" stroke-width="1" stroke-dasharray="3"/><path fill="none" stroke="rgb(127, 127, 127)" d="M 0 90 L 510 90" stroke-width="1" stroke-dasharray="3"/><path fill="none" stroke="rgb(127, 127, 127)" d="M 0 120 L 510 120" stroke-width="1" stroke-dasharray="3"/><path fill="none" stroke="rgb(127, 127, 127)" d="M 0 150 L 510 150" stroke-width="1" stroke-dasharray="3"/><path fill="none" stroke="rgb(127, 127, 127)" d="M 0 180 L 510 180" stroke-width="1" stroke-dasharray="3"/><path fill="none" stroke="rgb(127, 127, 127)" d="M 0 210 L 510 210" stroke-width="1" stroke-dasharray="3"/><path fill="none" stroke="rgb(127, 127, 127)" d="M 0 240 L 510 240" stroke-width="1" stroke-dasharray="3"/><path fill="none" stroke="rgb(127, 127, 127)" d="M 0 270 L 510 270" stroke-width="1" stroke-dasharray="3"/><path fill="none" stroke="rgb(127, 127, 127)" d="M 0 300 L 510 300" stroke-width="1" stroke-dasharray="3"/><path fill="none" stroke="rgb(127, 127, 127)" d="M 0 330 L 510 330" stroke-width="1" stroke-dasharray="3"/><path fill="none" stroke="rgb(127, 127, 127)" d="M 0 360 L 510 360" stroke-width="1" stroke-dasharray="3"/><path fill="none" stroke="rgb(127, 127, 127)" d="M 0 390 L 510 390" stroke-width="1" stroke-dasharray="3"/><path fill="none" stroke="rgb(127, 127, 127)" d="M 0 420 L 510 420" stroke-width="1" stroke-dasharray="3"/><path fill="none" stroke="rgb(127, 127, 127)" d="M 0 450 L 510 450" stroke-width="1" stroke-dasharray="3"/><path fill="none" stroke="rgb(127, 127, 127)" d="M 0 480 L 510 480" stroke-width="1" stroke-dasharray="3"/></g><g shape-rendering="crispEdges"/><g shape-rendering="crispEdges"><path fill="black" stroke="none" d="M 28.5 58.5 L 61.5 58.5 61.5 61.5 28.5 61.5 z"/><path fill="black" stroke="none" d="M 58.5 58.5 L 91.5 58.5 91.5 61.5 58.5 61.5 z"/><path fill="black" stroke="none" d="M 88.5 58.5 L 121.5 58.5 121.5 61.5 88.5 61.5 z"/><path fill="black" stroke="none" d="M 148.5 58.5 L 181.5 58.5 181.5 61.5 148.5 61.5 z"/><path fill="black" stroke="none" d="M 208.5 58.5 L 241.5 58.5 241.5 61.5 208.5 61.5 z"/><path fill="black" stroke="none" d="M 268.5 58.5 L 301.5 58.5 301.5 61.5 268.5 61.5 z"/><path fill="black" stroke="none" d="M 298.5 58.5 L 331.5 58.5 331.5 61.5 298.5 61.5 z"/><path fill="black" stroke="none" d="M 328.5 58.5 L 361.5 58.5 361.5 61.5 328.5 61.5 z"/><path fill="black" stroke="none" d="M 388.5 58.5 L 421.5 58.5 421.5 61.5 388.5 61.5 z"/><path fill="black" stroke="none" d="M 418.5 58.5 L 451.5 58.5 451.5 61.5 418.5 61.5 z"/><path fill="black" stroke="none" d="M 448.5 58.5 L 481.5 58.5 481.5 61.5 448.5 61.5 z"/><path fill="black" stroke="none" d="M 28.5 58.5 L 31.5 58.5 31.5 91.5 28.5 91.5 z"/><path fill="black" stroke="none" d="M 58.5 58.5 L 61.5 58.5 61.5 91.5 58.5 91.5 z"/><path fill="black" stroke="none" d="M 88.5 58.5 L 91.5 58.5 91.5 91.5 88.5 91.5 z"/><path fill="black" stroke="none" d="M 118.5 58.5 L 121.5 58.5 121.5 91.5 118.5 91.5 z"/><path fill="black" stroke="none" d="M 148.5 58.5 L 151.5 58.5 151.5 91.5 148.5 91.5 z"/><path fill="black" stroke="none" d="M 178.5 58.5 L 181.5 58.5 181.5 91.5 178.5 91.5 z"/><path fill="black" stroke="none" d="M 208.5 58.5 L 211.5 58.5 211.5 91.5 208.5 91.5 z"/><path fill="black" stroke="none" d="M 238.5 58.5 L 241.5 58.5 241.5 91.5 238.5 91.5 z"/><path fill="black" stroke="none" d="M 268.5 58.5 L 271.5 58.5 271.5 91.5 268.5 91.5 z"/><path fill="black" stroke="none" d="M 298.5 58.5 L 301.5 58.5 301.5 91.5 298.5 91.5 z"/><path fill="black" stroke="none" d="M 328.5 58.5 L 331.5 58.5 331.5 91.5 328.5 91.5 z"/><path fill="black" stroke="none" d="M 358.5 58.5 L 361.5 58.5 361.5 91.5 358.5 91.5 z"/><path fill="black" stroke="none" d="M 388.5 58.5 L 391.5 58.5 391.5 91.5 388.5 91.5 z"/><path fill="black" stroke="none" d="M 418.5 58.5 L 421.5 58.5 421.5 91.5 418.5 91.5 z"/><path fill="black" stroke="none" d="M 448.5 58.5 L 451.5 58.5 451.5 91.5 448.5 91.5 z"/><path fill="black" stroke="none" d="M 478.5 58.5 L 481.5 58.5 481.5 91.5 478.5 91.5 z"/><path fill="black" stroke="none" d="M 28.5 88.5 L 61.5 88.5 61.5 91.5 28.5 91.5 z"/><path fill="black" stroke="none" d="M 58.5 88.5 L 91.5 88.5 91.5 91.5 58.5 91.5 z"/><path fill="black" stroke="none" d="M 88.5 88.5 L 121.5 88.5 121.5 91.5 88.5 91.5 z"/><path fill="black" stroke="none" d="M 148.5 88.5 L 181.5 88.5 181.5 91.5 148.5 91.5 z"/><path fill="black" stroke="none" d="M 208.5 88.5 L 241.5 88.5 241.5 91.5 208.5 91.5 z"/><path fill="black" stroke="none" d="M 268.5 88.5 L 301.5 88.5 301.5 91.5 268.5 91.5 z"/><path fill="black" stroke="none" d="M 298.5 88.5 L 331.5 88.5 331.5 91.5 298.5 91.5 z"/><path fill="black" stroke="none" d="M 328.5 88.5 L 361.5 88.5 361.5 91.5 328.5 91.5 z"/><path fill="black" stroke="none" d="M 388.5 88.5 L 421.5 88.5 421.5 91.5 388.5 91.5 z"/><path fill="black" stroke="none" d="M 418.5 88.5 L 451.5 88.5 451.5 91.5 418.5 91.5 z"/><path fill="black" stroke="none" d="M 448.5 88.5 L 481.5 88.5 481.5 91.5 448.5 91.5 z"/><path fill="black" stroke="none" d="M 28.5 88.5 L 31.5 88.5 31.5 121.5 28.5 121.5 z"/><path fill="black" stroke="none" d="M 58.5 88.5 L 61.5 88.5 61.5 121.5 58.5 121.5 z"/><path fill="black" stroke="none" d="M 88.5 88.5 L 91.5 88.5 91.5 121.5 88.5 121.5 z"/><path fill="black" stroke="none" d="M 118.5 88.5 L 121.5 88.5 121.5 121.5 118.5 121.5 z"/><path fill="black" stroke="none" d="M 148.5 88.5 L 151.5 88.5 151.5 121.5 148.5 121.5 z"/><path fill="black" stroke="none" d="M 178.5 88.5 L 181.5 88.5 181.5 121.5 178.5 121.5 z"/><path fill="black" stroke="none" d="M 208.5 88.5 L 211.5 88.5 211.5 121.5 208.5 121.5 z"/><path fill="black" stroke="none" d="M 238.5 88.5 L 241.5 88.5 241.5 121.5 238.5 121.5 z"/><path fill="black" stroke="none" d="M 328.5 88.5 L 331.5 88.5 331.5 121.5 328.5 121.5 z"/><path fill="black" stroke="none" d="M 358.5 88.5 L 361.5 88.5 361.5 121.5 358.5 121.5 z"/><path fill="black" stroke="none" d="M 448.5 88.5 L 451.5 88.5 451.5 121.5 448.5 121.5 z"/><path fill="black" stroke="none" d="M 478.5 88.5 L 481.5 88.5 481.5 121.5 478.5 121.5 z"/><path fill="black" stroke="none" d="M 28.5 118.5 L 61.5 118.5 61.5 121.5 28.5 121.5 z"/><path fill="black" stroke="none" d="M 58.5 118.5 L 91.5 118.5 91.5 121.5 58.5 121.5 z"/><path fill="black" stroke="none" d="M 88.5 118.5 L 121.5 118.5 121.5 121.5 88.5 121.5 z"/><path fill="black" stroke="none" d="M 148.5 118.5 L 181.5 118.5 181.5 121.5 148.5 121.5 z"/><path fill="black" stroke="none" d="M 208.5 118.5 L 241.5 118.5 241.5 121.5 208.5 121.5 z"/><path fill="black" stroke="none" d="M 298.5 118.5 L 331.5 118.5 331.5 121.5 298.5 121.5 z"/><path fill="black" stroke="none" d="M 328.5 118.5 L 361.5 118.5 361.5 121.5 328.5 121.5 z"/><path fill="black" stroke="none" d="M 418.5 118.5 L 451.5 118.5 451.5 121.5 418.5 121.5 z"/><path fill="black" stroke="none" d="M 448.5 118.5 L 481.5 118.5 481.5 121.5 448.5 121.5 z"/><path fill="black" stroke="none" d="M 28.5 118.5 L 31.5 118.5 31.5 151.5 28.5 151.5 z"/><path fill="black" stroke="none" d="M 58.5 118.5 L 61.5 118.5 61.5 151.5 58.5 151.5 z"/><path fill="black" stroke="none" d="M 88.5 118.5 L 91.5 118.5 91.5 151.5 88.5 151.5 z"/><path fill="black" stroke="none" d="M 118.5 118.5 L 121.5 118.5 121.5 151.5 118.5 151.5 z"/><path fill="black" stroke="none" d="M 148.5 118.5 L 151.5 118.5 151.5 151.5 148.5 151.5 z"/><path fill="black" stroke="none" d="M 178.5 118.5 L 181.5 118.5 181.5 151.5 178.5 151.5 z"/><path fill="black" stroke="none" d="M 208.5 118.5 L 211.5 118.5 211.5 151.5 208.5 151.5 z"/><path fill="black" stroke="none" d="M 238.5 118.5 L 241.5 118.5 241.5 151.5 238.5 151.5 z"/><path fill="black" stroke="none" d="M 298.5 118.5 L 301.5 118.5 301.5 151.5 298.5 151.5 z"/><path fill="black" stroke="none" d="M 328.5 118.5 L 331.5 118.5 331.5 151.5 328.5 151.5 z"/><path fill="black" stroke="none" d="M 418.5 118.5 L 421.5 118.5 421.5 151.5 418.5 151.5 z"/><path fill="black" stroke="none" d="M 448.5 118.5 L 451.5 118.5 451.5 151.5 448.5 151.5 z"/><path fill="black" stroke="none" d="M 28.5 148.5 L 61.5 148.5 61.5 151.5 28.5 151.5 z"/><path fill="black" stroke="none" d="M 58.5 148.5 L 91.5 148.5 91.5 151.5 58.5 151.5 z"/><path fill="black" stroke="none" d="M 88.5 148.5 L 121.5 148.5 121.5 151.5 88.5 151.5 z"/><path fill="black" stroke="none" d="M 148.5 148.5 L 181.5 148.5 181.5 151.5 148.5 151.5 z"/><path fill="black" stroke="none" d="M 208.5 148.5 L 241.5 148.5 241.5 151.5 208.5 151.5 z"/><path fill="black" stroke="none" d="M 268.5 148.5 L 301.5 148.5 301.5 151.5 268.5 151.5 z"/><path fill="black" stroke="none" d="M 298.5 148.5 L 331.5 148.5 331.5 151.5 298.5 151.5 z"/><path fill="black" stroke="none" d="M 388.5 148.5 L 421.5 148.5 421.5 151.5 388.5 151.5 z"/><path fill="black" stroke="none" d="M 418.5 148.5 L 451.5 148.5 451.5 151.5 418.5 151.5 z"/><path fill="black" stroke="none" d="M 28.5 148.5 L 31.5 148.5 31.5 181.5 28.5 181.5 z"/><path fill="black" stroke="none" d="M 58.5 148.5 L 61.5 148.5 61.5 181.5 58.5 181.5 z"/><path fill="black" stroke="none" d="M 148.5 148.5 L 151.5 148.5 151.5 181.5 148.5 181.5 z"/><path fill="black" stroke="none" d="M 178.5 148.5 L 181.5 148.5 181.5 181.5 178.5 181.5 z"/><path fill="black" stroke="none" d="M 208.5 148.5 L 211.5 148.5 211.5 181.5 208.5 181.5 z"/><path fill="black" stroke="none" d="M 238.5 148.5 L 241.5 148.5 241.5 181.5 238.5 181.5 z"/><path fill="black" stroke="none" d="M 268.5 148.5 L 271.5 148.5 271.5 181.5 268.5 181.5 z"/><path fill="black" stroke="none" d="M 298.5 148.5 L 301.5 148.5 301.5 181.5 298.5 181.5 z"/><path fill="black" stroke="none" d="M 388.5 148.5 L 391.5 148.5 391.5 181.5 388.5 181.5 z"/><path fill="black" stroke="none" d="M 418.5 148.5 L 421.5 148.5 421.5 181.5 418.5 181.5 z"/><path fill="black" stroke="none" d="M 28.5 178.5 L 61.5 178.5 61.5 181.5 28.5 181.5 z"/><path fill="black" stroke="none" d="M 148.5 178.5 L 181.5 178.5 181.5 181.5 148.5 181.5 z"/><path fill="black" stroke="none" d="M 178.5 178.5 L 211.5 178.5 211.5 181.5 178.5 181.5 z"/><path fill="black" stroke="none" d="M 208.5 178.5 L 241.5 178.5 241.5 181.5 208.5 181.5 z"/><path fill="black" stroke="none" d="M 268.5 178.5 L 301.5 178.5 301.5 181.5 268.5 181.5 z"/><path fill="black" stroke="none" d="M 298.5 178.5 L 331.5 178.5 331.5 181.5 298.5 181.5 z"/><path fill="black" stroke="none" d="M 328.5 178.5 L 361.5 178.5 361.5 181.5 328.5 181.5 z"/><path fill="black" stroke="none" d="M 388.5 178.5 L 421.5 178.5 421.5 181.5 388.5 181.5 z"/><path fill="black" stroke="none" d="M 418.5 178.5 L 451.5 178.5 451.5 181.5 418.5 181.5 z"/><path fill="black" stroke="none" d="M 448.5 178.5 L 481.5 178.5 481.5 181.5 448.5 181.5 z"/><path fill="black" stroke="none" d="M 28.5 178.5 L 31.5 178.5 31.5 211.5 28.5 211.5 z"/><path fill="black" stroke="none" d="M 58.5 178.5 L 61.5 178.5 61.5 211.5 58.5 211.5 z"/><path fill="black" stroke="none" d="M 148.5 178.5 L 151.5 178.5 151.5 211.5 148.5 211.5 z"/><path fill="black" stroke="none" d="M 178.5 178.5 L 181.5 178.5 181.5 211.5 178.5 211.5 z"/><path fill="black" stroke="none" d="M 208.5 178.5 L 211.5 178.5 211.5 211.5 208.5 211.5 z"/><path fill="black" stroke="none" d="M 238.5 178.5 L 241.5 178.5 241.5 211.5 238.5 211.5 z"/><path fill="black" stroke="none" d="M 268.5 178.5 L 271.5 178.5 271.5 211.5 268.5 211.5 z"/><path fill="black" stroke="none" d="M 298.5 178.5 L 301.5 178.5 301.5 211.5 298.5 211.5 z"/><path fill="black" stroke="none" d="M 328.5 178.5 L 331.5 178.5 331.5 211.5 328.5 211.5 z"/><path fill="black" stroke="none" d="M 358.5 178.5 L 361.5 178.5 361.5 211.5 358.5 211.5 z"/><path fill="black" stroke="none" d="M 388.5 178.5 L 391.5 178.5 391.5 211.5 388.5 211.5 z"/><path fill="black" stroke="none" d="M 418.5 178.5 L 421.5 178.5 421.5 211.5 418.5 211.5 z"/><path fill="black" stroke="none" d="M 448.5 178.5 L 451.5 178.5 451.5 211.5 448.5 211.5 z"/><path fill="black" stroke="none" d="M 478.5 178.5 L 481.5 178.5 481.5 211.5 478.5 211.5 z"/><path fill="black" stroke="none" d="M 28.5 208.5 L 61.5 208.5 61.5 211.5 28.5 211.5 z"/><path fill="black" stroke="none" d="M 148.5 208.5 L 181.5 208.5 181.5 211.5 148.5 211.5 z"/><path fill="black" stroke="none" d="M 178.5 208.5 L 211.5 208.5 211.5 211.5 178.5 211.5 z"/><path fill="black" stroke="none" d="M 208.5 208.5 L 241.5 208.5 241.5 211.5 208.5 211.5 z"/><path fill="black" stroke="none" d="M 268.5 208.5 L 301.5 208.5 301.5 211.5 268.5 211.5 z"/><path fill="black" stroke="none" d="M 298.5 208.5 L 331.5 208.5 331.5 211.5 298.5 211.5 z"/><path fill="black" stroke="none" d="M 328.5 208.5 L 361.5 208.5 361.5 211.5 328.5 211.5 z"/><path fill="black" stroke="none" d="M 388.5 208.5 L 421.5 208.5 421.5 211.5 388.5 211.5 z"/><path fill="black" stroke="none" d="M 418.5 208.5 L 451.5 208.5 451.5 211.5 418.5 211.5 z"/><path fill="black" stroke="none" d="M 448.5 208.5 L 481.5 208.5 481.5 211.5 448.5 211.5 z"/><path fill="black" stroke="none" d="M 28.5 298.5 L 61.5 298.5 61.5 301.5 28.5 301.5 z"/><path fill="black" stroke="none" d="M 148.5 298.5 L 181.5 298.5 181.5 301.5 148.5 301.5 z"/><path fill="black" stroke="none" d="M 208.5 298.5 L 241.5 298.5 241.5 301.5 208.5 301.5 z"/><path fill="black" stroke="none" d="M 298.5 298.5 L 331.5 298.5 331.5 301.5 298.5 301.5 z"/><path fill="black" stroke="none" d="M 358.5 298.5 L 391.5 298.5 391.5 301.5 358.5 301.5 z"/><path fill="black" stroke="none" d="M 448.5 298.5 L 481.5 298.5 481.5 301.5 448.5 301.5 z"/><path fill="black" stroke="none" d="M 28.5 298.5 L 31.5 298.5 31.5 331.5 28.5 331.5 z"/><path fill="black" stroke="none" d="M 58.5 298.5 L 61.5 298.5 61.5 331.5 58.5 331.5 z"/><path fill="black" stroke="none" d="M 148.5 298.5 L 151.5 298.5 151.5 331.5 148.5 331.5 z"/><path fill="black" stroke="none" d="M 178.5 298.5 L 181.5 298.5 181.5 331.5 178.5 331.5 z"/><path fill="black" stroke="none" d="M 208.5 298.5 L 211.5 298.5 211.5 331.5 208.5 331.5 z"/><path fill="black" stroke="none" d="M 238.5 298.5 L 241.5 298.5 241.5 331.5 238.5 331.5 z"/><path fill="black" stroke="none" d="M 298.5 298.5 L 301.5 298.5 301.5 331.5 298.5 331.5 z"/><path fill="black" stroke="none" d="M 328.5 298.5 L 331.5 298.5 331.5 331.5 328.5 331.5 z"/><path fill="black" stroke="none" d="M 358.5 298.5 L 361.5 298.5 361.5 331.5 358.5 331.5 z"/><path fill="black" stroke="none" d="M 388.5 298.5 L 391.5 298.5 391.5 331.5 388.5 331.5 z"/><path fill="black" stroke="none" d="M 448.5 298.5 L 451.5 298.5 451.5 331.5 448.5 331.5 z"/><path fill="black" stroke="none" d="M 478.5 298.5 L 481.5 298.5 481.5 331.5 478.5 331.5 z"/><path fill="black" stroke="none" d="M 28.5 328.5 L 61.5 328.5 61.5 331.5 28.5 331.5 z"/><path fill="black" stroke="none" d="M 148.5 328.5 L 181.5 328.5 181.5 331.5 148.5 331.5 z"/><path fill="black" stroke="none" d="M 208.5 328.5 L 241.5 328.5 241.5 331.5 208.5 331.5 z"/><path fill="black" stroke="none" d="M 238.5 328.5 L 271.5 328.5 271.5 331.5 238.5 331.5 z"/><path fill="black" stroke="none" d="M 298.5 328.5 L 331.5 328.5 331.5 331.5 298.5 331.5 z"/><path fill="black" stroke="none" d="M 358.5 328.5 L 391.5 328.5 391.5 331.5 358.5 331.5 z"/><path fill="black" stroke="none" d="M 418.5 328.5 L 451.5 328.5 451.5 331.5 418.5 331.5 z"/><path fill="black" stroke="none" d="M 448.5 328.5 L 481.5 328.5 481.5 331.5 448.5 331.5 z"/><path fill="black" stroke="none" d="M 28.5 328.5 L 31.5 328.5 31.5 361.5 28.5 361.5 z"/><path fill="black" stroke="none" d="M 58.5 328.5 L 61.5 328.5 61.5 361.5 58.5 361.5 z"/><path fill="black" stroke="none" d="M 148.5 328.5 L 151.5 328.5 151.5 361.5 148.5 361.5 z"/><path fill="black" stroke="none" d="M 178.5 328.5 L 181.5 328.5 181.5 361.5 178.5 361.5 z"/><path fill="black" stroke="none" d="M 208.5 328.5 L 211.5 328.5 211.5 361.5 208.5 361.5 z"/><path fill="black" stroke="none" d="M 238.5 328.5 L 241.5 328.5 241.5 361.5 238.5 361.5 z"/><path fill="black" stroke="none" d="M 268.5 328.5 L 271.5 328.5 271.5 361.5 268.5 361.5 z"/><path fill="black" stroke="none" d="M 298.5 328.5 L 301.5 328.5 301.5 361.5 298.5 361.5 z"/><path fill="black" stroke="none" d="M 328.5 328.5 L 331.5 328.5 331.5 361.5 328.5 361.5 z"/><path fill="black" stroke="none" d="M 358.5 328.5 L 361.5 328.5 361.5 361.5 358.5 361.5 z"/><path fill="black" stroke="none" d="M 388.5 328.5 L 391.5 328.5 391.5 361.5 388.5 361.5 z"/><path fill="black" stroke="none" d="M 418.5 328.5 L 421.5 328.5 421.5 361.5 418.5 361.5 z"/><path fill="black" stroke="none" d="M 448.5 328.5 L 451.5 328.5 451.5 361.5 448.5 361.5 z"/><path fill="black" stroke="none" d="M 28.5 358.5 L 61.5 358.5 61.5 361.5 28.5 361.5 z"/><path fill="black" stroke="none" d="M 148.5 358.5 L 181.5 358.5 181.5 361.5 148.5 361.5 z"/><path fill="black" stroke="none" d="M 208.5 358.5 L 241.5 358.5 241.5 361.5 208.5 361.5 z"/><path fill="black" stroke="none" d="M 238.5 358.5 L 271.5 358.5 271.5 361.5 238.5 361.5 z"/><path fill="black" stroke="none" d="M 268.5 358.5 L 301.5 358.5 301.5 361.5 268.5 361.5 z"/><path fill="black" stroke="none" d="M 298.5 358.5 L 331.5 358.5 331.5 361.5 298.5 361.5 z"/><path fill="black" stroke="none" d="M 358.5 358.5 L 391.5 358.5 391.5 361.5 358.5 361.5 z"/><path fill="black" stroke="none" d="M 388.5 358.5 L 421.5 358.5 421.5 361.5 388.5 361.5 z"/><path fill="black" stroke="none" d="M 418.5 358.5 L 451.5 358.5 451.5 361.5 418.5 361.5 z"/><path fill="black" stroke="none" d="M 28.5 358.5 L 31.5 358.5 31.5 391.5 28.5 391.5 z"/><path fill="black" stroke="none" d="M 58.5 358.5 L 61.5 358.5 61.5 391.5 58.5 391.5 z"/><path fill="black" stroke="none" d="M 148.5 358.5 L 151.5 358.5 151.5 391.5 148.5 391.5 z"/><path fill="black" stroke="none" d="M 178.5 358.5 L 181.5 358.5 181.5 391.5 178.5 391.5 z"/><path fill="black" stroke="none" d="M 208.5 358.5 L 211.5 358.5 211.5 391.5 208.5 391.5 z"/><path fill="black" stroke="none" d="M 238.5 358.5 L 241.5 358.5 241.5 391.5 238.5 391.5 z"/><path fill="black" stroke="none" d="M 268.5 358.5 L 271.5 358.5 271.5 391.5 268.5 391.5 z"/><path fill="black" stroke="none" d="M 298.5 358.5 L 301.5 358.5 301.5 391.5 298.5 391.5 z"/><path fill="black" stroke="none" d="M 328.5 358.5 L 331.5 358.5 331.5 391.5 328.5 391.5 z"/><path fill="black" stroke="none" d="M 358.5 358.5 L 361.5 358.5 361.5 391.5 358.5 391.5 z"/><path fill="black" stroke="none" d="M 388.5 358.5 L 391.5 358.5 391.5 391.5 388.5 391.5 z"/><path fill="black" stroke="none" d="M 418.5 358.5 L 421.5 358.5 421.5 391.5 418.5 391.5 z"/><path fill="black" stroke="none" d="M 28.5 388.5 L 61.5 388.5 61.5 391.5 28.5 391.5 z"/><path fill="black" stroke="none" d="M 148.5 388.5 L 181.5 388.5 181.5 391.5 148.5 391.5 z"/><path fill="black" stroke="none" d="M 208.5 388.5 L 241.5 388.5 241.5 391.5 208.5 391.5 z"/><path fill="black" stroke="none" d="M 268.5 388.5 L 301.5 388.5 301.5 391.5 268.5 391.5 z"/><path fill="black" stroke="none" d="M 298.5 388.5 L 331.5 388.5 331.5 391.5 298.5 391.5 z"/><path fill="black" stroke="none" d="M 358.5 388.5 L 391.5 388.5 391.5 391.5 358.5 391.5 z"/><path fill="black" stroke="none" d="M 388.5 388.5 L 421.5 388.5 421.5 391.5 388.5 391.5 z"/><path fill="black" stroke="none" d="M 418.5 388.5 L 451.5 388.5 451.5 391.5 418.5 391.5 z"/><path fill="black" stroke="none" d="M 28.5 388.5 L 31.5 388.5 31.5 421.5 28.5 421.5 z"/><path fill="black" stroke="none" d="M 58.5 388.5 L 61.5 388.5 61.5 421.5 58.5 421.5 z"/><path fill="black" stroke="none" d="M 148.5 388.5 L 151.5 388.5 151.5 421.5 148.5 421.5 z"/><path fill="black" stroke="none" d="M 178.5 388.5 L 181.5 388.5 181.5 421.5 178.5 421.5 z"/><path fill="black" stroke="none" d="M 208.5 388.5 L 211.5 388.5 211.5 421.5 208.5 421.5 z"/><path fill="black" stroke="none" d="M 238.5 388.5 L 241.5 388.5 241.5 421.5 238.5 421.5 z"/><path fill="black" stroke="none" d="M 298.5 388.5 L 301.5 388.5 301.5 421.5 298.5 421.5 z"/><path fill="black" stroke="none" d="M 328.5 388.5 L 331.5 388.5 331.5 421.5 328.5 421.5 z"/><path fill="black" stroke="none" d="M 358.5 388.5 L 361.5 388.5 361.5 421.5 358.5 421.5 z"/><path fill="black" stroke="none" d="M 388.5 388.5 L 391.5 388.5 391.5 421.5 388.5 421.5 z"/><path fill="black" stroke="none" d="M 418.5 388.5 L 421.5 388.5 421.5 421.5 418.5 421.5 z"/><path fill="black" stroke="none" d="M 448.5 388.5 L 451.5 388.5 451.5 421.5 448.5 421.5 z"/><path fill="black" stroke="none" d="M 28.5 418.5 L 61.5 418.5 61.5 421.5 28.5 421.5 z"/><path fill="black" stroke="none" d="M 58.5 418.5 L 91.5 418.5 91.5 421.5 58.5 421.5 z"/><path fill="black" stroke="none" d="M 88.5 418.5 L 121.5 418.5 121.5 421.5 88.5 421.5 z"/><path fill="black" stroke="none" d="M 148.5 418.5 L 181.5 418.5 181.5 421.5 148.5 421.5 z"/><path fill="black" stroke="none" d="M 208.5 418.5 L 241.5 418.5 241.5 421.5 208.5 421.5 z"/><path fill="black" stroke="none" d="M 298.5 418.5 L 331.5 418.5 331.5 421.5 298.5 421.5 z"/><path fill="black" stroke="none" d="M 358.5 418.5 L 391.5 418.5 391.5 421.5 358.5 421.5 z"/><path fill="black" stroke="none" d="M 418.5 418.5 L 451.5 418.5 451.5 421.5 418.5 421.5 z"/><path fill="black" stroke="none" d="M 448.5 418.5 L 481.5 418.5 481.5 421.5 448.5 421.5 z"/><path fill="black" stroke="none" d="M 28.5 418.5 L 31.5 418.5 31.5 451.5 28.5 451.5 z"/><path fill="black" stroke="none" d="M 58.5 418.5 L 61.5 418.5 61.5 451.5 58.5 451.5 z"/><path fill="black" stroke="none" d="M 88.5 418.5 L 91.5 418.5 91.5 451.5 88.5 451.5 z"/><path fill="black" stroke="none" d="M 118.5 418.5 L 121.5 418.5 121.5 451.5 118.5 451.5 z"/><path fill="black" stroke="none" d="M 148.5 418.5 L 151.5 418.5 151.5 451.5 148.5 451.5 z"/><path fill="black" stroke="none" d="M 178.5 418.5 L 181.5 418.5 181.5 451.5 178.5 451.5 z"/><path fill="black" stroke="none" d="M 208.5 418.5 L 211.5 418.5 211.5 451.5 208.5 451.5 z"/><path fill="black" stroke="none" d="M 238.5 418.5 L 241.5 418.5 241.5 451.5 238.5 451.5 z"/><path fill="black" stroke="none" d="M 298.5 418.5 L 301.5 418.5 301.5 451.5 298.5 451.5 z"/><path fill="black" stroke="none" d="M 328.5 418.5 L 331.5 418.5 331.5 451.5 328.5 451.5 z"/><path fill="black" stroke="none" d="M 358.5 418.5 L 361.5 418.5 361.5 451.5 358.5 451.5 z"/><path fill="black" stroke="none" d="M 388.5 418.5 L 391.5 418.5 391.5 451.5 388.5 451.5 z"/><path fill="black" stroke="none" d="M 448.5 418.5 L 451.5 418.5 451.5 451.5 448.5 451.5 z"/><path fill="black" stroke="none" d="M 478.5 418.5 L 481.5 418.5 481.5 451.5 478.5 451.5 z"/><path fill="black" stroke="none" d="M 28.5 448.5 L 61.5 448.5 61.5 451.5 28.5 451.5 z"/><path fill="black" stroke="none" d="M 58.5 448.5 L 91.5 448.5 91.5 451.5 58.5 451.5 z"/><path fill="black" stroke="none" d="M 88.5 448.5 L 121.5 448.5 121.5 451.5 88.5 451.5 z"/><path fill="black" stroke="none" d="M 148.5 448.5 L 181.5 448.5 181.5 451.5 148.5 451.5 z"/><path fill="black" stroke="none" d="M 208.5 448.5 L 241.5 448.5 241.5 451.5 208.5 451.5 z"/><path fill="black" stroke="none" d="M 298.5 448.5 L 331.5 448.5 331.5 451.5 298.5 451.5 z"/><path fill="black" stroke="none" d="M 358.5 448.5 L 391.5 448.5 391.5 451.5 358.5 451.5 z"/><path fill="black" stroke="none" d="M 448.5 448.5 L 481.5 448.5 481.5 451.5 448.5 451.5 z"/></g><g shape-rendering="crispEdges"/><g shape-rendering="auto"><path fill="white" stroke="black" d="M 169.8 15.125 A 4.8 4.8 0 1 1 169.8 15 z" stroke-width="1.2"/><path fill="white" stroke="black" d="M 409.8 15.125 A 4.8 4.8 0 1 1 409.8 15 z" stroke-width="1.2"/><path fill="white" stroke="black" d="M 64.8 30.125 A 4.8 4.8 0 1 1 64.8 30 z" stroke-width="1.2"/><path fill="white" stroke="black" d="M 304.8 30.125 A 4.8 4.8 0 1 1 304.8 30 z" stroke-width="1.2"/><path fill="white" stroke="black" d="M 439.8 45.125 A 4.8 4.8 0 1 1 439.8 45 z" stroke-width="1.2"/><path fill="white" stroke="black" d="M 19.8 75.125 A 4.8 4.8 0 1 1 19.8 75 z" stroke-width="1.2"/><path fill="white" stroke="black" d="M 499.8 75.125 A 4.8 4.8 0 1 1 499.8 75 z" stroke-width="1.2"/><path fill="white" stroke="black" d="M 79.8 105.125 A 4.8 4.8 0 1 1 79.8 105 z" stroke-width="1.2"/><path fill="white" stroke="black" d="M 394.8 120.125 A 4.8 4.8 0 1 1 394.8 120 z" stroke-width="1.2"/><path fill="white" stroke="black" d="M 109.8 165.125 A 4.8 4.8 0 1 1 109.8 165 z" stroke-width="1.2"/><path fill="white" stroke="black" d="M 319.8 165.125 A 4.8 4.8 0 1 1 319.8 165 z" stroke-width="1.2"/><path fill="white" stroke="black" d="M 259.8 180.125 A 4.8 4.8 0 1 1 259.8 180 z" stroke-width="1.2"/><path fill="white" stroke="black" d="M 124.8 225.125 A 4.8 4.8 0 1 1 124.8 225 z" stroke-width="1.2"/><path fill="white" stroke="black" d="M 334.8 225.125 A 4.8 4.8 0 1 1 334.8 225 z" stroke-width="1.2"/><path fill="white" stroke="black" d="M 454.8 225.125 A 4.8 4.8 0 1 1 454.8 225 z" stroke-width="1.2"/><path fill="white" stroke="black" d="M 49.8 240.125 A 4.8 4.8 0 1 1 49.8 240 z" stroke-width="1.2"/><path fill="white" stroke="black" d="M 349.8 255.125 A 4.8 4.8 0 1 1 349.8 255 z" stroke-width="1.2"/><path fill="white" stroke="black" d="M 469.8 255.125 A 4.8 4.8 0 1 1 469.8 255 z" stroke-width="1.2"/><path fill="white" stroke="black" d="M 229.8 285.125 A 4.8 4.8 0 1 1 229.8 285 z" stroke-width="1.2"/><path fill="white" stroke="black" d="M 139.8 315.125 A 4.8 4.8 0 1 1 139.8 315 z" stroke-width="1.2"/><path fill="white" stroke="black" d="M 484.8 345.125 A 4.8 4.8 0 1 1 484.8 345 z" stroke-width="1.2"/><path fill="white" stroke="black" d="M 19.8 375.125 A 4.8 4.8 0 1 1 19.8 375 z" stroke-width="1.2"/><path fill="white" stroke="black" d="M 79.8 375.125 A 4.8 4.8 0 1 1 79.8 375 z" stroke-width="1.2"/><path fill="white" stroke="black" d="M 349.8 375.125 A 4.8 4.8 0 1 1 349.8 375 z" stroke-width="1.2"/><path fill="white" stroke="black" d="M 439.8 375.125 A 4.8 4.8 0 1 1 439.8 375 z" stroke-width="1.2"/><path fill="white" stroke="black" d="M 199.8 390.125 A 4.8 4.8 0 1 1 199.8 390 z" stroke-width="1.2"/><path fill="white" stroke="black" d="M 139.8 405.125 A 4.8 4.8 0 1 1 139.8 405 z" stroke-width="1.2"/><path fill="white" stroke="black" d="M 274.8 420.125 A 4.8 4.8 0 1 1 274.8 420 z" stroke-width="1.2"/><path fill="white" stroke="black" d="M 499.8 435.125 A 4.8 4.8 0 1 1 499.8 435 z" stroke-width="1.2"/><path fill="white" stroke="black" d="M 439.8 450.125 A 4.8 4.8 0 1 1 439.8 450 z" stroke-width="1.2"/><path fill="white" stroke="black" d="M 169.8 465.125 A 4.8 4.8 0 1 1 169.8 465 z" stroke-width="1.2"/><path fill="white" stroke="black" d="M 199.8 480.125 A 4.8 4.8 0 1 1 199.8 480 z" stroke-width="1.2"/><path fill="white" stroke="black" d="M 409.8 480.125 A 4.8 4.8 0 1 1 409.8 480 z" stroke-width="1.2"/><path fill="white" stroke="black" d="M 64.8 495.125 A 4.8 4.8 0 1 1 64.8 495 z" stroke-width="1.2"/><path fill="white" stroke="black" d="M 229.8 495.125 A 4.8 4.8 0 1 1 229.8 495 z" stroke-width="1.2"/></g><g shape-rendering="crispEdges"><path fill="black" stroke="none" d="M -1.5 -1.5 L 1.5 -1.5 1.5 511.5 -1.5 511.5 z"/><path fill="black" stroke="none" d="M 508.5 -1.5 L 511.5 -1.5 511.5 511.5 508.5 511.5 z"/><path fill="black" stroke="none" d="M -1.5 -1.5 L 511.5 -1.5 511.5 1.5 -1.5 1.5 z"/><path fill="black" stroke="none" d="M -1.5 508.5 L 511.5 508.5 511.5 511.5 -1.5 511.5 z"/></g><g shape-rendering="crispEdges"/></svg>